<svg width="16" height="15" viewBox="0 0 16 15" fill="none" xmlns="http://www.w3.org/2000/svg">
<path d="M14.6669 10.6154V12.6154C14.6677 12.8011 14.6297 12.9849 14.5553 13.155C14.4809 13.3251 14.3718 13.4778 14.235 13.6033C14.0982 13.7289 13.9367 13.8244 13.7608 13.8839C13.5849 13.9434 13.3985 13.9655 13.2136 13.9488C11.1622 13.7259 9.19161 13.0249 7.46028 11.9021C5.8495 10.8785 4.48384 9.51288 3.46028 7.9021C2.3336 6.1629 1.63244 4.18276 1.41361 2.1221C1.39695 1.93774 1.41886 1.75194 1.47795 1.57652C1.53703 1.40109 1.63199 1.23989 1.75679 1.10318C1.88159 0.966468 2.03348 0.857239 2.20281 0.782447C2.37213 0.707656 2.55517 0.66894 2.74028 0.668766H4.74028C5.06382 0.665582 5.37748 0.780152 5.62279 0.991121C5.8681 1.20209 6.02833 1.49506 6.07361 1.81543C6.15803 2.45548 6.31458 3.08392 6.54028 3.68877C6.62998 3.92738 6.64939 4.18671 6.59622 4.43602C6.54305 4.68533 6.41952 4.91417 6.24028 5.09543L5.39361 5.9421C6.34265 7.61113 7.72458 8.99306 9.39361 9.9421L10.2403 9.09543C10.4215 8.91619 10.6504 8.79267 10.8997 8.7395C11.149 8.68632 11.4083 8.70574 11.6469 8.79543C12.2518 9.02113 12.8802 9.17768 13.5203 9.2621C13.8441 9.30779 14.1399 9.4709 14.3513 9.72043C14.5627 9.96996 14.6751 10.2885 14.6669 10.6154Z" stroke="white" stroke-linecap="round" stroke-linejoin="round"/>
</svg>
