<svg width="62" height="44" viewBox="0 0 62 44" fill="none" xmlns="http://www.w3.org/2000/svg">
<g id="Frame" clip-path="url(#clip0_139_122115)">
<g id="Group">
<path id="Vector" d="M62 37.7748C61.6448 38.3451 61.1604 38.5733 60.4823 38.5244C59.8849 38.4755 59.2714 38.5407 58.674 38.5081C58.3187 38.4918 58.2057 38.6222 58.125 38.9644C57.3823 42.0118 54.7344 44.0814 51.6344 44.0162C48.6151 43.9674 45.9995 41.7673 45.3859 38.7362C45.3052 38.3451 45.2891 37.9377 45.2406 37.5303C45.063 37.0903 45.0953 36.6503 45.176 36.2103C46.0963 31.3866 51.5214 29.0888 55.5417 31.8266C56.8495 32.7229 57.7536 33.9614 58.2057 35.5096C58.3187 35.9007 58.4802 36.1614 58.9484 36.1614C59.5458 36.1614 59.6589 36.0799 59.6589 35.4607C59.6589 32.5111 59.6589 29.5614 59.6589 26.5955C59.6589 26.3673 59.6427 26.1555 59.5943 25.9274C59.5458 25.4711 59.3359 25.0799 59.0776 24.7051C57.9312 22.9614 56.7687 21.2177 55.5578 19.5229C54.8151 18.317 53.7495 17.714 52.3286 17.7792C51.5052 17.8118 50.6818 17.7955 49.8583 17.7792C49.4385 17.7792 49.2125 17.8933 49.2286 18.3659C49.2448 19.7022 49.2125 21.0385 49.2448 22.3748C49.2609 23.0918 49.5839 23.6622 50.149 24.0859C50.5365 24.3466 50.9724 24.3792 51.4245 24.3955C52.3609 24.3955 53.3135 24.3629 54.25 24.4118C55.2349 24.4607 55.687 24.9007 55.7677 25.7807C55.5901 26.6118 55.2672 26.9214 54.4599 26.9377C53.2328 26.954 52.0057 26.9866 50.7625 26.9377C48.6151 26.8562 46.7583 24.8192 46.7099 22.5051C46.6776 21.1851 46.7099 19.8651 46.6937 18.5288C46.6937 17.8118 46.6615 17.7792 45.9349 17.7792C45.4021 17.7792 44.8854 17.7466 44.4818 17.3066C44.2719 17.0622 44.0943 16.8177 44.2719 16.4918C44.4495 15.677 44.7724 15.3999 45.5958 15.3999C47.9693 15.3999 50.3589 15.3836 52.7323 15.3999C54.5729 15.4162 56.0745 16.1659 57.124 17.6651C58.4802 19.5881 59.7719 21.5599 61.0958 23.4992C61.5479 24.1511 61.7094 24.917 61.9839 25.6503C62 29.7081 62 33.7333 62 37.7748Z" fill="black"/>
<path id="Vector_2" d="M41.301 37.3837C40.8974 37.3837 40.4938 37.4 40.0901 37.4C39.9609 37.3349 39.8802 37.2208 39.8156 37.0904C39.5734 36.6015 39.1536 36.4712 38.6531 36.4712C37.3292 36.4712 35.9891 36.4712 34.6651 36.4712C31.9203 36.4712 29.1755 36.4712 26.4307 36.4712C25.462 36.4712 25.4458 36.4549 25.1714 35.5423C23.7505 30.9304 18.1156 29.4637 14.6604 32.8045C14.4505 33 14.2891 33.4563 13.837 33.163C13.6109 32.2667 13.7563 31.3541 13.7401 30.4578C13.724 29.9037 13.6432 29.3334 13.837 28.7793C14.0469 28.5186 14.3375 28.5512 14.612 28.5512C15.3224 28.5349 16.0167 28.5512 16.7271 28.5512C16.9047 28.5512 17.0823 28.5512 17.276 28.5349C17.825 28.4697 18.1964 28.1112 18.1802 27.6549C18.1802 27.1986 17.825 26.84 17.2922 26.7423C17.0339 26.6934 16.7755 26.7097 16.5172 26.7097C15.8714 26.7097 15.2255 26.7097 14.5958 26.7097C14.3375 26.7097 14.063 26.726 13.8693 26.4978C13.7401 26.2697 13.7401 26.0252 13.7563 25.7808C13.8047 24.5097 13.6271 23.2223 13.8531 21.9512C13.9823 21.723 14.2245 21.7393 14.4344 21.7067C15.1286 21.5926 15.4677 21.2667 15.4354 20.7289C15.4031 20.1423 15.0641 19.8815 14.2891 19.8815C13.1266 19.8652 11.9641 19.8815 10.7854 19.8815C10.5109 19.8815 10.2203 19.9141 9.96198 19.7512C9.94584 19.3274 10.2849 19.4252 10.4948 19.4252C11.2536 19.3926 12.0286 19.4089 12.7875 19.4089C14.0146 19.4089 13.7724 19.3763 13.9823 18.4312C15.3224 12.2874 19.0682 8.47412 25.026 6.82819C26.0432 6.55115 27.0927 6.45338 28.1422 6.45338C31.2906 6.45338 34.4391 6.45338 37.5714 6.45338C38.3625 6.45338 39.0891 6.30671 39.7349 5.81782C39.8802 5.70375 40.074 5.4756 40.3 5.75264C40.4453 6.11115 40.3969 6.46967 40.3969 6.84449C40.3969 14.8134 40.413 22.766 40.3807 30.7349C40.3807 31.6149 40.4938 32.3482 41.3495 32.7719C41.4786 32.9674 41.4786 33.1956 41.4948 33.4074C41.5109 34.5156 41.5109 35.6237 41.4948 36.7319C41.4786 36.9437 41.4948 37.1882 41.301 37.3837Z" fill="#00AA54"/>
<path id="Vector_3" d="M13.9338 21.9023C13.9338 23.4504 13.9338 24.9986 13.9338 26.5467C13.9661 26.7423 13.8047 26.7749 13.6917 26.8564C13.0943 27.3615 13.0781 27.8504 13.6271 28.3882C13.7401 28.5023 13.9016 28.5675 13.9177 28.7467C13.9177 30.2623 13.9338 31.7778 13.9338 33.2771C14.0146 33.3912 13.9823 33.5215 13.9177 33.6193C13.3526 34.4341 12.9812 35.3467 12.7713 36.3245C12.7391 36.4386 12.6906 36.5527 12.5937 36.6341C11.7864 37.1067 10.9307 37.0578 10.075 36.8134C9.94582 36.7808 9.8328 36.683 9.68749 36.6993C9.6552 36.683 9.62291 36.683 9.57447 36.683C9.31614 36.4223 9.38072 36.0801 9.38072 35.7541C9.38072 33.4889 9.34843 31.2401 9.39687 28.9749C9.41301 27.9971 9.38072 27.1008 8.46041 26.5304C8.46041 22.7008 8.46041 18.8875 8.46041 15.0578C8.7026 14.8134 9.02551 14.8786 9.31614 14.8786C10.6562 14.8623 12.0125 14.8786 13.3687 14.8786C13.7078 14.8786 14.063 14.8623 14.3698 14.7156C14.725 14.5364 14.9349 14.243 14.8864 13.8356C14.838 13.4445 14.5797 13.1838 14.1922 13.1023C13.95 13.0534 13.7078 13.0697 13.4656 13.0697C10.9469 13.0697 8.42812 13.0697 5.92551 13.0697C5.61874 13.0697 5.26353 13.1512 5.02135 12.8578C5.9578 12.6623 6.89426 12.7926 7.83072 12.7926C8.33124 12.7926 8.4927 12.6623 8.47655 12.1408C8.44426 11.1141 8.46041 10.0712 8.46041 9.02821C8.46041 8.22969 8.46041 8.22969 7.70155 8.22969C5.66718 8.22969 3.6328 8.22969 1.61458 8.22969C1.42083 8.22969 1.21093 8.29487 1.03333 8.1645C1.29166 7.85487 1.66301 7.93635 1.98593 7.93635C5.7802 7.93635 9.57447 7.93635 13.3687 7.93635C13.6271 7.93635 13.9016 7.95265 14.1599 7.90376C14.5958 7.83858 14.8542 7.56154 14.9026 7.13784C14.951 6.73043 14.725 6.43709 14.3536 6.27413C14.0469 6.14376 13.7239 6.12746 13.401 6.12746C12.3677 6.12746 11.3505 6.14376 10.3172 6.12746C9.57447 6.11117 9.42916 5.9808 9.41301 5.23117C9.39687 4.92154 9.39687 4.62821 9.41301 4.31858C9.49374 3.14524 10.3818 2.23265 11.5443 2.10228C11.8187 2.06969 12.1094 2.08598 12.3838 2.08598C20.6989 2.08598 28.9979 2.08598 37.313 2.08598C37.5391 2.08598 37.749 2.08598 37.975 2.08598C39.9448 2.18376 40.6713 3.82969 40.3323 5.50821C40.3161 5.58969 40.2516 5.65487 40.187 5.70376C39.4766 6.45339 38.6047 6.71413 37.5713 6.69783C34.4229 6.66524 31.2745 6.66524 28.126 6.69783C24.7354 6.73043 21.7323 7.90376 19.1005 10.0712C16.6948 11.9778 15.1771 14.5038 14.3536 17.5023C14.2083 18.0238 14.0953 18.5615 14.063 19.1156C14.0307 19.523 13.8693 19.5882 13.5302 19.5719C12.5292 19.5556 11.512 19.5719 10.5109 19.5719C10.3172 19.5719 10.1073 19.5067 9.92968 19.6697C9.8651 19.8164 9.73593 19.8652 9.62291 19.9467C9.20312 20.2075 9.07395 20.5823 9.20312 21.0549C9.33228 21.5112 9.68749 21.6904 10.1234 21.7067C10.8338 21.7393 11.5281 21.723 12.2385 21.723C12.6745 21.723 13.1266 21.7067 13.5625 21.7393C13.6917 21.7393 13.837 21.7719 13.9338 21.9023Z" fill="#45BA75"/>
<path id="Vector_4" d="M40.187 5.62222C40.187 5.2637 40.2031 4.88889 40.2031 4.53037C40.187 3.12889 39.2828 2.2 37.8781 2.2C33.4542 2.2 29.0464 2.2 24.6224 2.2C20.4245 2.2 16.2266 2.2 12.0286 2.2C10.3656 2.2 9.54219 3.03111 9.54219 4.70963C9.54219 5.89926 9.54219 5.89926 10.737 5.89926C11.8026 5.89926 12.8682 5.88296 13.95 5.89926C14.4505 5.89926 14.838 6.11111 15.0318 6.6163C15.1932 7.04 15.0964 7.41481 14.8057 7.74074C14.5151 8.09926 14.0953 8.08296 13.6917 8.08296C9.67136 8.06667 5.66719 8.06667 1.64688 8.06667C1.42083 8.06667 1.21094 8.08296 0.984897 8.09926C0.27448 7.9037 -0.096874 7.4637 -0.0161448 6.87704C0.0645844 6.29037 0.516668 5.89926 1.24323 5.89926C3.1 5.88296 4.95677 5.88296 6.81354 5.89926C7.23333 5.89926 7.37865 5.80148 7.3625 5.36148C7.34635 4.69333 7.29792 4.02519 7.47552 3.35704C7.9599 1.40148 9.63906 0 11.625 0C20.4568 0 29.2885 0 38.1042 0.0162963C40.4776 0.0162963 42.3667 1.97185 42.3828 4.4163C42.399 8.22963 42.3828 12.0267 42.3828 15.84C42.3828 16.0681 42.399 16.28 42.399 16.5081C42.5927 16.7526 42.5766 17.0459 42.5766 17.323C42.5766 21.9348 42.5766 26.5467 42.5766 31.1585C42.5766 31.4844 42.5604 31.8104 42.4312 32.12C42.2214 32.6252 41.8339 32.837 41.301 32.7719C40.413 32.5111 40.2193 32.2504 40.2193 31.2889C40.2193 22.9778 40.2193 14.6667 40.2193 6.35556C40.2031 6.11111 40.187 5.86667 40.187 5.62222Z" fill="black"/>
<path id="Vector_5" d="M59.6911 25.7645C59.8364 26.0252 59.8203 26.3185 59.8203 26.5956C59.8203 29.643 59.8042 32.6904 59.8364 35.7541C59.8364 36.2104 59.7234 36.406 59.2713 36.3082C59.2552 36.3082 59.2229 36.3082 59.2068 36.3082C58.5125 36.4385 58.1896 36.2104 57.9797 35.4445C57.1239 32.4297 54.0239 30.4089 51.0531 30.8489C47.6786 31.3378 45.3052 33.9778 45.2568 37.286C45.2568 37.3674 45.2406 37.4489 45.2406 37.5304C44.6594 37.286 44.0458 37.4978 43.4646 37.4C43.2385 37.1719 43.2708 36.8785 43.2708 36.5852C43.2708 30.1645 43.2708 23.76 43.2708 17.3393C43.2708 17.0623 43.2385 16.7689 43.4646 16.5245C43.7391 16.5245 43.9974 16.5082 44.2719 16.5082C44.4495 17.323 44.7724 17.6 45.5958 17.6163C46.8552 17.6326 46.839 17.6326 46.8713 18.92C46.9036 20.3704 46.726 21.8208 46.9682 23.2548C47.3234 25.2756 49.0026 26.726 51.0208 26.8074C52.1349 26.84 53.2328 26.8237 54.3469 26.8237C55.1219 26.8237 55.3963 26.5793 55.6062 25.7808C55.7515 25.6504 55.9292 25.6341 56.1068 25.6341C57.1239 25.6178 58.1573 25.6178 59.1745 25.6341C59.3682 25.6178 59.5458 25.6341 59.6911 25.7645Z" fill="#ECAB0C"/>
<path id="Vector_6" d="M12.5776 36.5526C12.7552 35.3466 13.2557 34.2711 13.9339 33.277C15.0641 32.0222 16.388 31.1585 18.0833 30.8977C21.3771 30.3763 24.6062 32.5274 25.3974 35.8192C25.4943 36.2429 25.6557 36.3081 26.0432 36.3081C30.2411 36.2918 34.4229 36.3081 38.6208 36.3081C39.5573 36.3081 39.8318 36.52 40.0901 37.4163C39.8479 38.2963 39.5734 38.5081 38.6854 38.5081C34.4875 38.5081 30.2896 38.5081 26.1078 38.4918C25.6719 38.4918 25.5104 38.5896 25.3974 39.0459C24.6547 42.1259 21.7646 44.1955 18.5677 43.9837C15.4193 43.7718 12.9167 41.2459 12.5615 37.9214C12.5937 37.4814 12.2385 37.0089 12.5776 36.5526Z" fill="black"/>
<path id="Vector_7" d="M8.46041 26.514C9.33229 26.7748 9.55833 27.0518 9.55833 27.997C9.57447 30.8814 9.57448 33.7822 9.59062 36.6666C9.57448 36.8622 9.57447 37.074 9.55833 37.2696C9.52604 38.0355 9.07395 38.5244 8.42812 38.5081C7.79843 38.4918 7.37864 38.0192 7.37864 37.2696C7.37864 34.6296 7.3625 31.9733 7.39479 29.3333C7.39479 28.8444 7.24947 28.7303 6.79739 28.7303C4.98906 28.7629 3.16458 28.7466 1.35625 28.7466C0.532808 28.7466 0.0322876 28.3392 0.0322876 27.6711C0.0322876 27.0029 0.532808 26.5629 1.3401 26.5629C3.69739 26.5303 6.07083 26.514 8.46041 26.514Z" fill="black"/>
<path id="Vector_8" d="M43.4807 16.5244C43.4807 23.4829 43.4807 30.4252 43.4807 37.3837C42.7541 37.3837 42.0276 37.3837 41.301 37.3837C41.301 35.8355 41.301 34.3037 41.301 32.7555C42.189 32.4948 42.3989 32.2177 42.3989 31.2726C42.3989 26.5629 42.3989 21.8696 42.3989 17.16C42.3989 16.9318 42.4151 16.72 42.4151 16.4918C42.7542 16.5081 43.1094 16.5244 43.4807 16.5244Z" fill="#F9B50B"/>
<path id="Vector_9" d="M5.00522 12.8088C7.65314 12.8088 10.2849 12.8088 12.9328 12.8088C13.2557 12.8088 13.5787 12.8088 13.9016 12.8088C14.6281 12.8251 15.1125 13.2488 15.1287 13.8681C15.1448 14.5199 14.6604 14.9925 13.9016 14.9925C12.3031 15.0088 10.7208 14.9925 9.12241 14.9925C8.89636 14.9925 8.68647 15.0088 8.46043 15.0251C7.41095 15.0088 6.36147 15.0088 5.32814 14.9762C4.5047 14.9599 4.03647 14.4548 4.1172 13.7214C4.18178 13.2162 4.5047 12.9229 5.00522 12.8088Z" fill="black"/>
<path id="Vector_10" d="M3.32603 19.6696C3.60051 19.6696 3.89113 19.6533 4.16561 19.6696C4.81144 19.7022 5.23124 20.1422 5.24738 20.7452C5.26353 21.3155 4.84374 21.8044 4.26249 21.8533C3.61665 21.8859 2.97082 21.9022 2.32499 21.8533C1.74374 21.8044 1.32394 21.2666 1.35624 20.7289C1.38853 20.1585 1.82446 19.7185 2.42186 19.6859C2.72863 19.6696 3.0354 19.6859 3.32603 19.6696C3.32603 19.6859 3.32603 19.6696 3.32603 19.6696Z" fill="#010101"/>
<path id="Vector_11" d="M12.5776 36.5526C12.5776 37.0089 12.5614 37.4815 12.5614 37.9378C12.5291 37.4815 12.287 37.3674 11.851 37.4C11.0437 37.4652 10.3172 37.2045 9.67133 36.683C10.0588 36.4548 10.3656 36.8296 10.737 36.8134C11.3666 36.7808 11.9963 36.7971 12.5776 36.5526Z" fill="#FCAA66"/>
<path id="Vector_12" d="M54.7344 34.2222C55.9938 35.3629 56.3813 36.8133 56.0099 38.4266C55.6224 40.1051 54.5406 41.2296 52.8776 41.6533C51.1985 42.0933 49.7453 41.637 48.5505 40.3333C48.8089 39.9748 48.8896 39.5674 48.9865 39.1436C49.4708 36.7481 51.3115 34.9555 53.7011 34.5481C54.0724 34.4992 54.3953 34.3199 54.7344 34.2222Z" fill="#42434D"/>
<path id="Vector_13" d="M50.0198 24.2C49.374 23.8252 49.0672 23.2059 49.0511 22.4889C49.0188 20.9896 49.0511 19.4904 49.0349 17.9748C49.0349 17.6978 49.0995 17.5837 49.4063 17.6C50.6011 17.6163 51.7797 17.5674 52.9745 17.6326C54.2339 17.6978 55.138 18.3985 55.7354 19.523C55.8162 19.7185 55.7516 19.8652 55.6547 20.0445C54.6214 21.6904 53.2328 22.9126 51.3922 23.5807C51.0531 23.7111 50.7141 23.8415 50.4396 24.1022C50.3266 24.1837 50.2136 24.3467 50.0198 24.2Z" fill="#E7F7FB"/>
<path id="Vector_14" d="M50.0198 24.2C50.9401 23.32 52.2479 23.1897 53.2489 22.4075C54.2823 21.6089 55.1219 20.68 55.7193 19.5067C56.9463 21.2993 58.1734 23.1082 59.3844 24.9171C59.5458 25.1615 59.6911 25.4386 59.675 25.7645C58.3187 25.7645 56.9463 25.7645 55.5901 25.7645C55.4286 24.9008 55.1219 24.6238 54.25 24.6238C53.2812 24.6238 52.3125 24.6238 51.3599 24.6238C50.8917 24.6075 50.4073 24.5749 50.0198 24.2Z" fill="#D5F3FB"/>
<path id="Vector_15" d="M54.7344 34.2222C54.589 34.6296 54.1854 34.6459 53.8786 34.6785C51.5213 34.9229 49.3255 36.9926 49.0349 39.6652C49.0026 39.9748 48.938 40.2844 48.5505 40.3333C46.9521 38.6222 47.0651 35.8355 48.7927 34.1896C50.4719 32.6089 53.2489 32.6252 54.7344 34.2222Z" fill="#585966"/>
<path id="Vector_16" d="M13.9339 21.9022C12.6906 21.9022 11.4474 21.8859 10.2042 21.8696C9.47763 21.8696 9.02555 21.5274 8.94482 20.9244C8.86409 20.2726 9.187 19.8652 9.94586 19.6533C11.399 19.6533 12.8521 19.6696 14.3052 19.6696C15.2094 19.6696 15.6615 20.0444 15.6776 20.7615C15.6776 21.4622 15.1933 21.8533 14.3052 21.8696C14.1599 21.8696 14.0469 21.8859 13.9339 21.9022Z" fill="black"/>
<path id="Vector_17" d="M13.9338 28.7467C13.4656 28.5511 13.1104 28.2252 13.0943 27.6711C13.0781 27.0845 13.4495 26.7585 13.9338 26.5304C14.9995 26.5304 16.0651 26.5304 17.1469 26.5304C17.9057 26.5304 18.4062 26.9867 18.4062 27.6385C18.4062 28.2904 17.9219 28.7304 17.1469 28.7304C16.0651 28.7467 14.9995 28.7467 13.9338 28.7467Z" fill="black"/>
<path id="Vector_18" d="M19.7625 15.0252C19.3912 15.0089 19.0682 15.0252 18.7615 14.96C18.1964 14.8623 17.825 14.3897 17.8573 13.8519C17.8896 13.2978 18.2771 12.8578 18.8583 12.8252C19.4557 12.7926 20.0693 12.7926 20.6667 12.8252C21.2318 12.8578 21.6354 13.3141 21.6677 13.8519C21.6839 14.3734 21.3448 14.846 20.812 14.9437C20.4568 15.0089 20.0854 14.9926 19.7625 15.0252Z" fill="#010100"/>
<path id="Vector_19" d="M22.039 34.2222C23.3146 35.3955 23.6375 36.8622 23.2661 38.4918C22.8786 40.1866 21.7646 41.2622 20.1177 41.6696C18.4708 42.077 17.0177 41.637 15.8713 40.3496C16.0812 40.0399 16.1781 39.714 16.2427 39.3392C16.7271 36.7807 18.5193 35.0044 21.0703 34.5481C21.4094 34.4829 21.7161 34.3199 22.039 34.2222Z" fill="#42434D"/>
<path id="Vector_20" d="M22.0391 34.2222C21.8453 34.6459 21.4094 34.6459 21.0542 34.6948C18.6323 35.037 16.6302 37.1066 16.3396 39.5999C16.3073 39.9259 16.275 40.2518 15.8552 40.3333C14.2568 38.6059 14.3698 35.8355 16.0812 34.1896C17.7766 32.6088 20.5536 32.6088 22.0391 34.2222Z" fill="#585966"/>
</g>
</g>
<defs>
<clipPath id="clip0_139_122115">
<rect width="62" height="44" fill="white"/>
</clipPath>
</defs>
</svg>
