<svg width="56" height="51" viewBox="0 0 56 51" fill="none" xmlns="http://www.w3.org/2000/svg">
<g id="Frame" clip-path="url(#clip0_139_122137)">
<g id="Group">
<path id="Vector" d="M0 31.5638C0.160417 31.5349 0.145833 31.3757 0.189583 31.2599C0.83125 29.639 2.04167 28.7996 3.77708 28.7273C4.9 28.6838 6.0375 28.6983 7.16042 28.7273C8.77917 28.7707 10.1354 29.7693 10.675 31.2888C10.7771 31.5783 10.8354 31.6796 11.1271 31.477C11.7104 31.1007 12.3375 30.8113 13.0083 30.6376C13.3729 30.5508 13.4167 30.3916 13.3292 30.0732C12.8479 28.322 12.6583 26.5275 12.6875 24.704C12.7167 23.0831 12.9354 21.4912 13.3729 19.9426C13.475 19.5953 13.3875 19.3927 13.1542 19.1467C9.96042 15.6299 8.00625 11.5922 7.86042 6.77295C7.81667 5.47045 8.34167 4.58765 9.52292 3.99429C11.9 2.76415 14.2625 1.47613 16.625 0.202577C17.1062 -0.0579227 17.5292 -0.0579227 18.0104 0.202577C20.4167 1.50507 22.8375 2.7931 25.2437 4.08112C25.9583 4.47187 26.5417 4.96393 26.6729 5.80331C26.7312 6.15065 26.95 5.96251 27.0812 5.93356C28.5542 5.4994 30.0562 5.2389 31.5875 5.15207C34.825 4.94946 37.9312 5.51387 40.9062 6.78742C41.5771 7.07687 41.7667 7.53998 41.5771 8.33595C41.0229 8.97272 40.6875 9.05956 39.8562 8.71222C35.6708 7.00451 31.4125 6.84531 27.0958 8.23464C26.8042 8.33595 26.6583 8.4662 26.6 8.78459C26.1042 12.3158 24.5729 15.3839 22.3854 18.1626C21.3646 19.4506 20.1396 20.536 18.7104 21.3754C17.7771 21.9253 16.8729 21.9543 15.9396 21.3899C15.7646 21.2741 15.6042 21.1149 15.3562 21.1149C14.7 23.9949 14.7437 26.8459 15.4875 29.7114C15.6042 30.1745 15.7937 30.2903 16.2604 30.2903C21.7583 30.2758 27.2708 30.2903 32.7687 30.2758C33.8333 30.2758 34.825 30.4929 35.5979 31.202C36.0062 31.5783 36.2833 31.4625 36.6042 31.202C36.7646 31.0718 36.9104 30.956 37.0417 30.7968C37.7417 29.9429 37.9458 28.9878 37.5083 27.9602C37.0563 26.9327 36.2687 26.2959 35.1167 26.267C33.7021 26.2236 32.2729 26.2525 30.8583 26.238C28.5979 26.2091 26.775 24.9645 26.0458 22.9673C25.3312 21.0281 25.8708 18.9296 27.4604 17.5403C28.4375 16.6864 29.5896 16.3101 30.8729 16.3101C31.7333 16.3101 31.7333 16.2957 31.7333 15.4273C31.7333 14.8918 31.7333 14.3419 31.7333 13.8064C31.7479 13.0684 32.2 12.6052 32.8563 12.6052C33.4979 12.6197 33.9208 13.0684 33.9354 13.7775C33.95 14.5011 33.95 15.2247 33.9208 15.9483C33.9062 16.2378 34.0083 16.3246 34.3 16.3101C35.1021 16.2957 35.9042 16.3101 36.7062 16.3101C37.3917 16.3101 38.0917 16.2957 38.7771 16.3101C39.4771 16.3246 39.9437 16.8022 39.9292 17.4245C39.9146 18.0468 39.4771 18.452 38.7917 18.4954C38.6312 18.5099 38.4708 18.4954 38.2958 18.4954C35.8604 18.4954 33.4104 18.4954 30.975 18.4954C30.4208 18.4954 29.8813 18.5678 29.4 18.8428C28.2917 19.4361 27.7375 20.6952 28.0146 21.9398C28.2771 23.0976 29.3417 23.9949 30.5667 24.0238C32.0104 24.0672 33.4396 24.0238 34.8833 24.0527C37.1583 24.0817 39.025 25.4276 39.6958 27.4827C40.3521 29.5232 39.6667 31.752 37.9021 32.9821C37.3333 33.3728 36.8812 33.7057 37.0125 34.4727C37.0417 34.6753 36.9542 34.8924 36.8958 35.1095C36.4437 36.687 34.9562 37.8882 33.2646 37.9171C30.9312 37.9605 28.5979 37.9316 26.2646 37.9461C25.9583 37.9461 25.6375 37.9605 25.3458 38.0474C24.7625 38.221 24.3542 38.7276 24.3396 39.263C24.325 39.813 24.6896 40.305 25.2875 40.5221C25.5354 40.6089 25.7833 40.6379 26.0458 40.6379C26.9937 40.6379 27.9417 40.6379 28.8896 40.6379C32.2 40.6379 35.525 40.6379 38.8354 40.6379C39.8417 40.6379 40.6729 40.3484 41.4312 39.6104C43.0792 38.0039 44.8146 36.4699 46.5208 34.9214C47.25 34.2701 47.9208 33.5465 48.7229 32.9821C48.9562 32.8229 49.1167 32.6348 49.2188 32.3743C51.7562 26.238 51.2021 20.4202 47.4833 14.9063C46.9583 14.1393 46.9583 13.792 47.4833 13.1118C48.3292 12.7355 48.7229 12.8368 49.2479 13.5894C53.1125 19.1901 53.9583 25.2395 51.8729 31.6941C51.8292 31.8388 51.7708 31.998 51.7271 32.1716C52.3979 32.2874 53.0396 32.4032 53.6229 32.7216C54.8042 33.3584 55.5917 34.2846 55.8979 35.616C55.9125 35.6884 55.9125 35.7607 56 35.7752C56 36.2817 56 36.7883 56 37.2948C55.6354 38.1487 55.2562 38.988 54.5271 39.6393C51.0854 42.7653 47.6292 45.8768 44.2604 49.0752C42.8167 50.4356 41.1833 51.0723 39.2437 51.0723C33.7458 51.0868 28.2333 51.1447 22.7354 50.9421C20.7667 50.8697 18.8271 50.6671 17.0042 49.7988C15.2833 48.9739 13.5333 48.2358 11.7833 47.4688C11.4917 47.3385 11.2 47.2083 10.8792 47.0635C10.7479 49.3357 9.05625 50.5513 7.48125 50.7105C6.125 50.8408 4.73958 50.8552 3.38333 50.7105C1.76458 50.5224 0.65625 49.5962 0.13125 48.0476C0.102083 47.9608 0.116667 47.8595 0 47.8306C0 42.3456 0 36.9619 0 31.5638ZM24.1062 32.4321C21.2042 32.4321 18.3167 32.4177 15.4146 32.4466C13.7812 32.4611 12.3667 33.0689 11.1708 34.1833C10.9375 34.4004 10.85 34.6174 10.85 34.9358C10.8646 37.9895 10.8646 41.0431 10.85 44.1112C10.85 44.502 10.9958 44.6467 11.3167 44.7769C13.4896 45.7321 15.6771 46.6728 17.8354 47.6858C19.0458 48.2503 20.3146 48.5252 21.6271 48.5976C27.4604 48.916 33.2937 48.8002 39.1271 48.8147C40.6146 48.8147 41.8542 48.3371 42.9333 47.2517C44.4208 45.761 46.025 44.3862 47.5708 42.9679C49.4229 41.2747 51.275 39.5959 53.1125 37.8882C54.2646 36.8027 53.9583 35.1384 52.4854 34.5306C51.4208 34.0964 50.4583 34.2846 49.6125 35.0661C47.2646 37.2224 44.8875 39.3788 42.5542 41.5496C41.8687 42.1864 41.0812 42.5193 40.1771 42.664C39.1854 42.8232 38.1792 42.7942 37.1729 42.7942C33.3812 42.7942 29.5896 42.7942 25.7979 42.7653C24.3396 42.7508 23.2167 42.0706 22.5312 40.7681C21.9187 39.5959 22.0208 38.4092 22.7792 37.3382C23.5521 36.2239 24.675 35.7318 26.0167 35.7318C28.2625 35.7173 30.4937 35.7318 32.7396 35.7318C34.0083 35.7318 34.8542 35.0806 34.8542 34.1109C34.8687 33.1413 34.0083 32.4611 32.7542 32.4611C29.8667 32.4177 26.9792 32.4321 24.1062 32.4321ZM24.5583 7.09134C24.7771 6.45456 24.3542 6.04934 23.625 5.68754C21.6271 4.67448 19.6875 3.60354 17.7188 2.5326C17.4562 2.38788 17.2521 2.34446 16.975 2.50366C14.8313 3.66143 12.7021 4.81921 10.5437 5.94804C10.1938 6.13618 10.0625 6.35326 10.0625 6.74401C10.1208 9.73975 11.1125 12.4316 12.6729 14.9497C13.6646 16.5417 14.8312 18.0034 16.4062 19.0598C17.4562 19.769 17.1792 19.74 18.1854 19.0743C19.1917 18.4231 20.0229 17.5837 20.7375 16.6575C22.8958 13.8933 24.3104 10.8396 24.5583 7.09134ZM8.64792 39.7117C8.64792 37.3672 8.64792 35.0082 8.64792 32.6637C8.64792 31.5928 8.00625 30.9415 6.92708 30.927C5.92083 30.9126 4.92917 30.9126 3.92292 30.927C2.84375 30.9415 2.20208 31.6072 2.20208 32.6637C2.20208 37.3527 2.20208 42.0272 2.20208 46.7162C2.20208 47.7727 2.78542 48.4384 3.85 48.4818C4.9 48.5252 5.96458 48.5252 7.01458 48.4818C8.07917 48.4384 8.64792 47.7871 8.64792 46.7162C8.64792 44.3717 8.64792 42.0417 8.64792 39.7117Z" fill="#020202"/>
<path id="Vector_2" d="M47.4979 13.0394C46.9729 13.7196 46.9875 14.0669 47.4979 14.834C51.2167 20.3479 51.7854 26.1802 49.2333 32.3019C49.1312 32.5624 48.9708 32.7505 48.7375 32.9097C47.9354 33.4742 47.25 34.1978 46.5354 34.849C44.8292 36.3975 43.0937 37.9316 41.4458 39.538C40.6875 40.2761 39.8562 40.5655 38.85 40.5655C35.5396 40.5655 32.2146 40.5655 28.9042 40.5655C27.9562 40.5655 27.0083 40.5655 26.0604 40.5655C25.7979 40.5655 25.55 40.5366 25.3021 40.4498C24.7042 40.2327 24.3396 39.7551 24.3542 39.1907C24.3687 38.6552 24.7771 38.1487 25.3604 37.975C25.6521 37.8882 25.9729 37.8737 26.2792 37.8737C28.6125 37.8737 30.9458 37.9026 33.2792 37.8448C34.9708 37.8158 36.4437 36.6146 36.9104 35.0372C36.9687 34.8345 37.0708 34.603 37.0271 34.4004C36.8958 33.6334 37.3479 33.3005 37.9167 32.9097C39.6812 31.6941 40.3666 29.4509 39.7104 27.4103C39.0396 25.3553 37.1729 24.0093 34.8979 23.9804C33.4542 23.9659 32.0104 23.9949 30.5812 23.9515C29.3562 23.9225 28.2917 23.0252 28.0292 21.8675C27.7375 20.6373 28.3062 19.3782 29.4146 18.7704C29.9104 18.5099 30.4354 18.4231 30.9896 18.4231C33.425 18.4231 35.875 18.4231 38.3104 18.4231C38.4708 18.4231 38.6458 18.4231 38.8062 18.4231C39.4917 18.3797 39.9291 17.9744 39.9437 17.3521C39.9583 16.7298 39.4916 16.2522 38.7917 16.2378C38.1062 16.2233 37.4062 16.2378 36.7208 16.2378C35.9187 16.2378 35.1167 16.2233 34.3146 16.2378C34.0375 16.2378 33.9354 16.1654 33.9354 15.876C33.95 15.1524 33.95 14.4288 33.95 13.7051C33.9354 12.9815 33.5125 12.5329 32.8708 12.5329C32.2146 12.5184 31.7625 12.996 31.7479 13.7341C31.7333 14.2696 31.7479 14.8195 31.7479 15.355C31.7479 16.2378 31.7479 16.2378 30.8875 16.2378C29.6042 16.2522 28.4521 16.6285 27.475 17.4679C25.9 18.8428 25.3458 20.9557 26.0604 22.895C26.7896 24.8921 28.6125 26.1223 30.8729 26.1657C32.2875 26.1802 33.7167 26.1512 35.1312 26.1946C36.2833 26.2381 37.0708 26.8604 37.5229 27.8879C37.975 28.9154 37.7562 29.8706 37.0562 30.7244C36.925 30.8836 36.7792 30.9994 36.6187 31.1297C36.2833 31.4046 36.0208 31.5204 35.6125 31.1297C34.825 30.4205 33.8479 30.189 32.7833 30.2034C27.2854 30.2179 21.7729 30.2034 16.275 30.2179C15.8229 30.2179 15.6333 30.1166 15.5021 29.639C14.7583 26.788 14.7146 23.9225 15.3708 21.0425C15.6187 21.0425 15.7792 21.2162 15.9542 21.3175C16.8875 21.8964 17.7917 21.8675 18.725 21.303C20.1542 20.4637 21.3792 19.3927 22.4 18.0902C24.5875 15.3116 26.1187 12.229 26.6146 8.71224C26.6583 8.39385 26.8187 8.2636 27.1104 8.16229C31.4271 6.77296 35.6708 6.93216 39.8708 8.63988C40.7021 8.98721 41.0375 8.90037 41.5917 8.2636C42.4229 8.65435 43.2104 9.10299 43.9104 9.68187C43.6333 10.4055 43.7208 10.8831 44.2021 11.2159C44.6687 11.5488 45.15 11.4764 45.7041 11.0133C46.2875 11.7369 46.8854 12.3882 47.4979 13.0394Z" fill="#ECAB0C"/>
<path id="Vector_3" d="M45.6896 11.0856C45.1354 11.5487 44.6396 11.6066 44.1875 11.2882C43.7063 10.9554 43.6188 10.4778 43.8958 9.75419C44.7271 9.04505 45.6604 9.24766 45.8938 10.1739C45.9667 10.5067 45.8354 10.7962 45.6896 11.0856Z" fill="#020202"/>
<path id="Vector_4" d="M24.1063 32.4321C26.9792 32.4321 29.8667 32.4321 32.7396 32.4321C33.9938 32.4321 34.8396 33.1123 34.8396 34.0819C34.825 35.0516 33.9792 35.7028 32.725 35.7028C30.4792 35.7028 28.2479 35.7028 26.0021 35.7028C24.6604 35.7028 23.5375 36.1949 22.7646 37.3092C22.0063 38.3946 21.9042 39.5669 22.5167 40.7391C23.1875 42.0416 24.325 42.7218 25.7833 42.7363C29.575 42.7652 33.3667 42.7652 37.1583 42.7652C38.1646 42.7652 39.1562 42.8087 40.1625 42.635C41.0667 42.4903 41.8542 42.1429 42.5396 41.5206C44.8875 39.3498 47.25 37.1935 49.5979 35.0371C50.4437 34.2556 51.4208 34.0675 52.4708 34.5016C53.9438 35.1095 54.25 36.7738 53.0979 37.8592C51.2604 39.5669 49.4083 41.2457 47.5563 42.9389C46.0104 44.3572 44.3917 45.732 42.9187 47.2227C41.8396 48.3081 40.6 48.7857 39.1125 48.7857C33.2792 48.7712 27.4458 48.887 21.6125 48.5686C20.3 48.4962 19.0313 48.2213 17.8208 47.6568C15.6625 46.6438 13.4896 45.7031 11.3021 44.7479C10.9958 44.6177 10.8354 44.473 10.8354 44.0822C10.8646 41.0286 10.85 37.9749 10.8354 34.9068C10.8354 34.5885 10.9229 34.3714 11.1563 34.1543C12.3521 33.0399 13.7667 32.4321 15.4 32.4176C18.3021 32.4032 21.2042 32.4321 24.1063 32.4321Z" fill="#FDDAD3"/>
<path id="Vector_5" d="M24.5583 7.09131C24.3104 10.8396 22.8813 13.8932 20.7521 16.6574C20.0229 17.5981 19.1917 18.4375 18.2 19.0743C17.1792 19.7255 17.4562 19.7545 16.4208 19.0598C14.8458 17.9889 13.6792 16.5417 12.6875 14.9497C11.1125 12.4316 10.1062 9.72525 10.0625 6.72951C10.0625 6.32428 10.1938 6.12167 10.5438 5.93354C12.7021 4.8047 14.8313 3.64693 16.975 2.48915C17.2667 2.32996 17.4708 2.38785 17.7187 2.5181C19.6875 3.58904 21.6271 4.65998 23.625 5.67304C24.3542 6.04931 24.7771 6.45453 24.5583 7.09131ZM16.8146 13.4591C17.2229 13.488 17.5146 13.2565 17.7917 12.9815C18.9875 11.7658 20.1833 10.5502 21.3792 9.3345C21.9333 8.77008 21.9625 8.11884 21.4958 7.65573C21.0292 7.19262 20.3583 7.2505 19.8042 7.80045C19.0458 8.553 18.3021 9.32003 17.5583 10.0871C16.8146 10.8541 16.8146 10.8541 16.0417 10.1449C15.9542 10.0581 15.8521 9.97128 15.7646 9.88444C15.225 9.42133 14.5833 9.43581 14.1604 9.89892C13.7375 10.3476 13.7812 11.0133 14.2917 11.4909C14.875 12.0408 15.4583 12.5763 16.0417 13.1262C16.2458 13.3288 16.4938 13.4591 16.8146 13.4591Z" fill="#00AA54"/>
<path id="Vector_6" d="M8.64792 39.7116C8.64792 42.0416 8.64792 44.3717 8.64792 46.7162C8.64792 47.7871 8.07917 48.4383 7.01459 48.4818C5.96459 48.5252 4.9 48.5252 3.85 48.4818C2.78542 48.4383 2.20209 47.7726 2.20209 46.7162C2.20209 42.0272 2.20209 37.3526 2.20209 32.6637C2.20209 31.6072 2.85834 30.9415 3.92292 30.927C4.92917 30.9125 5.92084 30.9125 6.92709 30.927C8.00625 30.9415 8.64792 31.5927 8.64792 32.6637C8.64792 35.0081 8.64792 37.3526 8.64792 39.7116Z" fill="#00AA54"/>
<path id="Vector_7" d="M16.8146 13.4592C16.4938 13.4736 16.2458 13.3289 16.0271 13.1263C15.4438 12.5764 14.8458 12.0409 14.2771 11.4909C13.7813 11.0134 13.7375 10.3476 14.1458 9.899C14.5833 9.43589 15.2104 9.42142 15.75 9.88453C15.8521 9.97136 15.9396 10.0582 16.0271 10.145C16.8 10.8542 16.8 10.8542 17.5438 10.0871C18.2875 9.32011 19.0458 8.55309 19.7896 7.80053C20.3438 7.25059 21 7.1927 21.4813 7.65581C21.9625 8.11892 21.9188 8.77017 21.3646 9.33459C20.1688 10.5502 18.9729 11.7659 17.7771 12.9816C17.5146 13.2421 17.2375 13.4881 16.8146 13.4592Z" fill="#020202"/>
</g>
</g>
<defs>
<clipPath id="clip0_139_122137">
<rect width="56" height="51" fill="white"/>
</clipPath>
</defs>
</svg>
