<svg width="55" height="56" viewBox="0 0 55 56" fill="none" xmlns="http://www.w3.org/2000/svg">
<g id="Frame" clip-path="url(#clip0_139_122146)">
<g id="Group">
<path id="Vector" d="M55 10.2434C54.7629 11.6723 53.7847 12.5598 52.3619 12.635C52.273 12.635 52.184 12.65 52.0951 12.635C50.5686 12.4094 49.3088 12.9358 48.049 13.7932C45.9 15.2673 43.6621 16.606 41.3649 18.065C41.5131 17.1625 41.6465 16.3503 41.7798 15.538C41.9281 14.6807 42.0614 13.8233 42.2245 12.9659C42.2838 12.6801 42.1948 12.62 41.9281 12.635C41.3056 12.65 40.6683 12.65 40.0458 12.635C38.3414 12.62 37.215 11.4768 37.215 9.74701C37.2002 7.49076 37.215 5.23452 37.215 2.97827C37.215 1.51923 37.7782 0.676901 39.0825 0.105318C39.1417 0.0752352 39.2158 0.0752352 39.2307 -0.0150146C43.751 -0.0150146 48.2714 -0.0150146 52.8065 -0.0150146C53.9922 0.361026 54.8221 1.08302 54.9852 2.40669C55 5.03897 55 7.64118 55 10.2434ZM43.8103 14.3046C43.914 14.2896 43.9585 14.2896 43.9733 14.2745C45.0552 13.5977 46.1964 12.981 47.2043 12.2138C48.6567 11.0857 50.2277 10.6044 52.0507 10.7999C52.9547 10.9052 53.2511 10.5292 53.2511 9.62667C53.2511 7.41555 53.2511 5.21947 53.2511 3.00835C53.2511 2.1209 52.9695 1.82006 52.1099 1.82006C48.138 1.82006 44.1808 1.82006 40.2088 1.82006C39.3048 1.82006 39.038 2.09081 39.038 3.03844C39.038 5.18939 39.038 7.34034 39.038 9.4913C39.038 10.6044 39.2603 10.83 40.357 10.83C41.6909 10.83 43.0396 10.83 44.4031 10.83C44.1956 12.0033 44.003 13.1314 43.8103 14.3046Z" fill="#030303"/>
<path id="Vector_2" d="M25.6696 48.8703C26.0994 49.2765 26.5441 49.6675 26.9887 50.0887C25.3288 51.6229 23.7578 53.1873 22.0682 54.6012C19.771 56.5416 16.2881 56.4363 14.1391 54.3455C11.2935 51.5778 8.53679 48.7049 5.73566 45.877C4.49071 44.6135 3.24576 43.35 2.00082 42.0866C-0.68175 39.364 -0.68175 35.5284 2.00082 32.8059C3.17166 31.6176 4.3425 30.4443 5.49853 29.241C5.75048 28.9853 5.86905 29.0003 6.10618 29.241C8.07735 31.2566 10.0485 33.2722 12.0493 35.2727C12.3309 35.5434 12.3754 35.6939 12.0641 35.9947C11.0563 36.9724 10.0782 37.9952 9.08516 39.003C8.46269 39.6348 8.46269 40.0559 9.05552 40.6726C9.97441 41.6203 10.8933 42.5528 11.827 43.5005C12.0493 43.3651 12.0493 43.1395 12.0938 42.959C12.9237 40.1612 14.7912 38.5969 17.6071 38.1456C19.2522 37.8749 20.8825 37.559 22.5276 37.2431C22.6907 37.2131 22.9426 37.2883 22.9871 36.9874C23.0315 36.7167 22.8685 36.6114 22.6758 36.4911C20.6602 35.1674 19.356 33.3173 18.7928 30.9407C18.7335 30.685 18.6001 30.5947 18.3926 30.5195C16.7623 29.9329 15.8879 28.6845 15.8731 26.9246C15.8731 24.909 15.8731 22.8784 15.8731 20.8628C15.8879 14.801 20.1859 9.86737 26.1143 9.10025C32.0722 8.33312 37.8672 12.7253 38.8157 18.7269C38.9491 19.5241 39.0084 20.3213 39.0084 21.1185C39.0084 24.5029 39.0084 27.8873 39.0084 31.2867C39.0084 33.1969 37.9116 34.3702 36.0442 34.295C35.0512 34.2649 34.2657 34.4003 33.6581 35.2877C33.2875 35.8142 32.7243 36.1752 32.1612 36.5211C31.9685 36.6415 31.8796 36.7618 31.8944 37.0025C31.924 37.2883 32.1612 37.2131 32.3094 37.2431C34.162 37.6041 36.0146 37.905 37.8523 38.281C40.1347 38.7473 41.7502 40.1011 42.5505 42.3122C43.2916 44.3578 43.9289 46.4336 44.6106 48.5093C44.6255 48.5695 44.6255 48.6447 44.6403 48.75C38.3266 48.75 32.0426 48.75 25.7437 48.75C25.7141 48.7801 25.6993 48.8252 25.6696 48.8703ZM37.215 23.8561C37.1558 22.2166 37.3929 20.562 37.052 18.9525C36.2072 14.9665 33.8507 12.274 29.9973 11.2061C26.0698 10.1231 22.661 11.2963 19.9636 14.3949C17.5627 17.1475 17.5182 20.4717 17.7405 23.8711C18.5705 23.6004 18.6001 23.6004 18.5705 23.0739C18.5408 22.6227 18.7039 22.5324 19.1188 22.5324C20.2156 22.5776 21.2975 22.4271 22.3646 22.1113C24.2617 21.5397 25.7882 20.3965 27.1073 18.9375C27.374 18.6366 27.5519 18.5915 27.8483 18.9224C28.5152 19.6595 29.2266 20.3514 30.0566 20.9079C31.8203 22.0812 33.7618 22.5926 35.8664 22.5625C36.0887 22.5625 36.4444 22.4422 36.3703 22.8784C36.2369 23.5703 36.637 23.7658 37.215 23.8561ZM42.1948 46.93C41.7502 45.5762 41.3649 44.2977 40.9202 43.0342C40.3274 41.3495 39.1269 40.3568 37.4077 40.0259C35.5255 39.6649 33.6432 39.3189 31.761 38.9579C31.4349 38.8977 31.2274 38.9579 31.0051 39.1986C29.9529 40.2966 28.8709 41.3495 27.8187 42.4476C27.5519 42.7333 27.4037 42.7634 27.1073 42.4626C26.055 41.3495 24.9582 40.2665 23.8911 39.1685C23.6985 38.9729 23.5206 38.8827 23.239 38.9429C21.4754 39.2738 19.7265 39.6348 17.948 39.9055C15.7693 40.2515 14.3762 41.4398 13.7685 43.6058C13.6796 43.9367 13.5759 44.2676 13.4425 44.5835C13.3239 44.8843 13.3832 45.0798 13.6203 45.2904C14.1242 45.7567 14.5837 46.2681 15.0728 46.7495C15.6656 47.3511 16.0658 47.3662 16.6882 46.7946C17.7998 45.7868 18.9114 44.779 19.9933 43.7411C20.3193 43.4403 20.4824 43.4854 20.7491 43.7712C21.6384 44.7038 22.5573 45.5913 23.4317 46.5238C23.6985 46.8096 23.9801 46.9149 24.3654 46.9149C29.2415 46.8999 34.1175 46.8999 39.0084 46.8999C40.0458 46.93 41.0833 46.93 42.1948 46.93ZM31.9537 34.31C30.8866 34.31 29.8195 34.31 28.7375 34.31C27.4185 34.31 27.4333 34.31 27.4185 32.9864C27.4185 32.5652 27.5371 32.4749 27.9372 32.4749C29.7009 32.49 31.4498 32.4749 33.2134 32.49C33.5098 32.49 33.6581 32.3997 33.7914 32.129C34.3102 31.0761 34.5473 29.978 34.5473 28.8198C34.5473 27.4962 34.5325 26.1575 34.5621 24.8338C34.5621 24.4578 34.4436 24.3374 34.0879 24.2923C31.6869 24.0065 29.5823 23.0438 27.7742 21.4193C27.5519 21.2088 27.4185 21.1636 27.1665 21.4043C25.3288 23.0589 23.1946 24.0516 20.7491 24.3073C20.4379 24.3374 20.3341 24.4427 20.3341 24.7736C20.349 26.1725 20.2897 27.5864 20.349 28.9853C20.4675 31.9936 21.8607 34.2499 24.5729 35.4833C27.211 36.6565 29.7009 36.2053 31.9537 34.31ZM18.4371 54.1349C19.6376 54.165 20.7491 53.5332 21.7125 52.5405C21.8607 52.375 21.8459 52.2848 21.6977 52.1344C20.4675 50.8859 19.2374 49.6375 18.0073 48.389C17.8739 48.2536 17.7702 48.2386 17.6071 48.3589C16.1695 49.3366 14.9987 49.2163 13.7685 47.9678C11.7974 45.9673 9.84102 43.9818 7.86985 41.9813C6.63973 40.7328 6.50634 39.5445 7.48451 38.0855C7.60308 37.92 7.60308 37.8147 7.46969 37.6794C6.23957 36.4309 5.00944 35.1824 3.77931 33.934C3.6311 33.7836 3.54218 33.7986 3.39397 33.934C1.4228 35.6187 1.23013 38.6721 3.05309 40.5523C7.06953 44.6888 11.1304 48.7801 15.1913 52.8714C16.0065 53.7288 17.0439 54.1349 18.4371 54.1349ZM24.3209 49.9985C24.232 49.8932 24.1283 49.7879 24.0394 49.6826C23.0612 48.6898 22.083 47.6971 21.1048 46.7043C20.2897 45.877 20.3045 45.8921 19.4597 46.6742C19.1929 46.9149 19.1929 47.0503 19.4449 47.306C20.4675 48.3288 21.4754 49.3667 22.498 50.3895C23.2242 51.1266 23.239 51.1416 23.9801 50.4196C24.1135 50.2993 24.2913 50.2241 24.3209 49.9985ZM9.84102 35.7239C9.79656 35.4983 9.66317 35.4231 9.57425 35.3329C8.53679 34.2799 7.49933 33.227 6.46188 32.1741C5.79494 31.4972 5.80976 31.5123 5.15765 32.1591C4.86123 32.4449 4.93534 32.5802 5.18729 32.8359C6.31367 33.949 7.41041 35.0922 8.53679 36.2203C8.67018 36.3557 8.78874 36.6716 9.01106 36.5211C9.32229 36.2805 9.57425 35.9646 9.84102 35.7239ZM24.899 37.6643C25.7141 38.4766 26.5144 39.2888 27.3296 40.1011C27.4185 40.1913 27.4778 40.2214 27.5963 40.1161C28.3967 39.3039 29.2118 38.4916 30.0121 37.6794C29.9973 37.6342 29.9825 37.5891 29.9677 37.544C28.2781 38.0404 26.6033 38.0103 24.899 37.6643ZM35.6737 32.4449C37.2299 32.6254 37.3633 32.0237 37.1706 30.2337C36.8445 30.4443 36.3406 30.3842 36.1628 30.7602C35.9256 31.2867 35.8367 31.8733 35.6737 32.4449ZM18.5408 25.5408C17.8591 26.007 17.6071 26.5786 17.696 27.3157C17.7553 27.8572 18.0073 28.2783 18.5408 28.5792C18.5408 27.5413 18.5408 26.5937 18.5408 25.5408ZM36.3703 28.6092C37.052 28.1279 37.304 27.5413 37.2002 26.8043C37.1261 26.2778 36.8742 25.8416 36.3703 25.5708C36.3703 26.5937 36.3703 27.5563 36.3703 28.6092Z" fill="#030303"/>
<path id="Vector_3" d="M5.14282 22.2767C5.7653 21.9006 6.38777 21.5547 6.9806 21.1485C7.30666 20.9229 7.51415 20.8928 7.692 21.314C7.85503 21.7051 8.34412 22.0811 8.22555 22.4271C8.1218 22.7279 7.57343 22.8934 7.23256 23.104C5.98761 23.8711 4.74266 24.6081 3.51253 25.3903C3.2013 25.5858 3.08273 25.5257 2.9197 25.2248C2.04527 23.7056 1.14121 22.1864 0.237137 20.6973C0.0592872 20.3965 0.0444664 20.231 0.385345 20.0956C0.785506 19.9151 1.17085 19.3887 1.52655 19.509C1.83778 19.6143 2.00081 20.1859 2.22312 20.5619C2.53436 21.0884 2.8456 21.6148 3.21612 22.2315C3.6311 20.5469 4.10537 19.0126 4.80194 17.5385C8.46268 9.77707 14.4355 4.9487 22.7499 3.18883C26.6626 2.36154 30.5605 2.60221 34.3991 3.70025C34.7696 3.80554 34.8437 3.94091 34.7103 4.28687C34.5473 4.69299 34.5325 5.29466 34.2509 5.46012C33.9841 5.61053 33.4506 5.32474 33.0504 5.21945C21.0455 2.04567 8.31447 9.61161 5.17246 21.7953C5.128 21.9307 5.06872 22.0661 5.14282 22.2767Z" fill="#030303"/>
<path id="Vector_4" d="M51.1466 20.1709C52.11 23.3146 52.5398 26.5184 52.2878 29.8126C51.8876 34.9568 50.124 39.5595 47.0116 43.6358C46.8486 43.8464 46.7448 43.8765 46.5522 43.696C46.2113 43.3952 45.6925 43.1846 45.5592 42.8085C45.4109 42.4024 45.9741 42.0715 46.2113 41.7105C50.5686 35.2877 51.6653 28.3535 49.4867 20.8778C49.4422 20.7425 49.3977 20.6071 49.3236 20.4115C48.8494 21.2088 48.4048 21.9458 47.975 22.6979C47.8267 22.9686 47.6934 22.9987 47.4414 22.8182C47.0709 22.5625 46.4929 22.4121 46.3595 22.0812C46.2261 21.7352 46.7152 21.314 46.9375 20.923C47.6637 19.6745 48.4196 18.4411 49.131 17.1776C49.3088 16.8617 49.4422 16.8467 49.7386 17.0272C51.2207 17.9447 52.7028 18.8623 54.2145 19.7497C54.5109 19.9302 54.5998 20.0656 54.3627 20.3514C54.0959 20.7124 53.9922 21.3441 53.6217 21.4193C53.3104 21.4795 52.8955 21.0433 52.5249 20.8327C52.0951 20.577 51.6505 20.3363 51.2207 20.0806C51.2059 20.0355 51.1762 19.9904 51.117 20.0355C51.117 20.0505 51.1466 20.1258 51.1466 20.1709Z" fill="#030303"/>
<path id="Vector_5" d="M37.215 23.856C36.637 23.7658 36.2369 23.5853 36.3554 22.8934C36.4295 22.4572 36.059 22.5775 35.8515 22.5775C33.747 22.5925 31.8054 22.0962 30.0418 20.9229C29.2118 20.3664 28.4856 19.6745 27.8335 18.9374C27.5371 18.6065 27.3592 18.6516 27.0924 18.9525C25.7734 20.4115 24.2468 21.5547 22.3498 22.1263C21.2975 22.4421 20.2156 22.5925 19.104 22.5474C18.689 22.5324 18.526 22.6377 18.5556 23.0889C18.6001 23.6154 18.5556 23.6154 17.7257 23.8861C17.5182 20.4867 17.5627 17.1625 19.9488 14.4099C22.661 11.3113 26.055 10.123 29.9825 11.2211C33.8359 12.289 36.1924 14.9965 37.0372 18.9675C37.3781 20.5619 37.1558 22.2165 37.215 23.856Z" fill="#CF960A"/>
<path id="Vector_6" d="M42.1948 46.9299C41.0833 46.9299 40.0458 46.9299 39.0084 46.9299C34.1323 46.9299 29.2563 46.9299 24.3654 46.945C23.9801 46.945 23.6985 46.8397 23.4317 46.5539C22.5425 45.6213 21.6236 44.7338 20.7491 43.8013C20.4675 43.5155 20.3045 43.4553 19.9933 43.7712C18.9114 44.809 17.7998 45.8018 16.6882 46.8246C16.0658 47.3962 15.6656 47.3812 15.0728 46.7795C14.5837 46.2982 14.1242 45.7868 13.6203 45.3205C13.3832 45.1099 13.3239 44.8993 13.4425 44.6135C13.5759 44.2976 13.6796 43.9667 13.7685 43.6358C14.3614 41.4848 15.7545 40.2815 17.948 39.9356C19.7117 39.6648 21.4754 39.3038 23.239 38.9729C23.5206 38.9127 23.6985 39.003 23.8911 39.1985C24.9582 40.2966 26.055 41.3796 27.1073 42.4926C27.4037 42.7935 27.5371 42.7634 27.8187 42.4776C28.8709 41.3796 29.9529 40.3116 31.0051 39.2286C31.2274 38.9879 31.4349 38.9278 31.761 38.9879C33.6432 39.364 35.5255 39.6949 37.4077 40.0559C39.1269 40.3868 40.3274 41.3796 40.9202 43.0642C41.3649 44.2826 41.7502 45.5611 42.1948 46.9299Z" fill="#00AA54"/>
<path id="Vector_7" d="M31.9537 34.31C29.7009 36.2053 27.211 36.6565 24.5581 35.4682C21.8459 34.2348 20.4527 31.9936 20.3341 28.9702C20.2749 27.5714 20.3341 26.1725 20.3193 24.7586C20.3193 24.4277 20.4231 24.3224 20.7343 24.2923C23.1797 24.0366 25.3139 23.0589 27.1517 21.3893C27.4037 21.1636 27.5371 21.2088 27.7594 21.4043C29.5675 23.0288 31.6721 23.9915 34.073 24.2772C34.4287 24.3224 34.5473 24.4427 34.5473 24.8187C34.5177 26.1424 34.5325 27.4811 34.5325 28.8048C34.5325 29.978 34.2953 31.0761 33.7766 32.1139C33.6432 32.3696 33.495 32.4749 33.1986 32.4749C31.4349 32.4599 29.6861 32.49 27.9224 32.4599C27.5222 32.4599 27.4037 32.5652 27.4037 32.9713C27.4185 34.295 27.4037 34.295 28.7227 34.295C29.8195 34.31 30.8866 34.31 31.9537 34.31Z" fill="#F7DEA5"/>
<path id="Vector_8" d="M18.4371 54.1349C17.0439 54.1349 16.0065 53.7288 15.1765 52.8865C11.1156 48.7951 7.06953 44.6888 3.03827 40.5674C1.20049 38.6872 1.40798 35.6337 3.37915 33.949C3.54218 33.8137 3.61628 33.7986 3.76449 33.949C4.99461 35.1975 6.22474 36.446 7.45487 37.6944C7.60308 37.8448 7.58825 37.9351 7.46969 38.1005C6.49152 39.5596 6.6249 40.7479 7.85503 41.9963C9.8262 43.9969 11.7825 45.9823 13.7537 47.9829C14.9838 49.2313 16.1547 49.3517 17.5923 48.374C17.7701 48.2536 17.8591 48.2536 17.9925 48.404C19.2226 49.6525 20.4527 50.901 21.6828 52.1494C21.831 52.2848 21.8459 52.3901 21.6977 52.5555C20.7491 53.5332 19.6376 54.165 18.4371 54.1349Z" fill="#ECAB0C"/>
<path id="Vector_9" d="M24.3209 49.9984C24.2913 50.2241 24.1135 50.2993 23.9801 50.4196C23.2242 51.1416 23.2242 51.1416 22.498 50.3895C21.4902 49.3667 20.4824 48.3288 19.4449 47.306C19.1929 47.0503 19.1781 46.9149 19.4597 46.6742C20.3045 45.8921 20.3045 45.8921 21.1048 46.7043C22.083 47.6971 23.0612 48.6898 24.0393 49.6826C24.1283 49.7878 24.232 49.9082 24.3209 49.9984Z" fill="#ECAB0C"/>
<path id="Vector_10" d="M9.84102 35.7239C9.57425 35.9796 9.32229 36.2955 9.01106 36.5061C8.78874 36.6565 8.67018 36.3406 8.53679 36.2052C7.41041 35.0771 6.31367 33.949 5.18729 32.8209C4.93534 32.5652 4.87605 32.4298 5.15765 32.144C5.82458 31.4972 5.80976 31.4822 6.46188 32.159C7.49933 33.212 8.53679 34.2649 9.57425 35.3178C9.66317 35.4231 9.79656 35.4983 9.84102 35.7239Z" fill="#ECAB0C"/>
<path id="Vector_11" d="M24.899 37.6643C26.6182 38.0102 28.2781 38.0403 29.9529 37.5439C29.9677 37.5891 29.9825 37.6342 29.9973 37.6793C29.197 38.4916 28.3818 39.3038 27.5815 40.1161C27.4778 40.2214 27.4037 40.1913 27.3147 40.101C26.5144 39.2888 25.6993 38.4765 24.899 37.6643Z" fill="#F7DEA5"/>
<path id="Vector_12" d="M18.5408 25.5408C18.5408 26.5937 18.5408 27.5413 18.5408 28.5792C18.0073 28.2783 17.7553 27.8572 17.696 27.3157C17.6219 26.5937 17.8591 26.0071 18.5408 25.5408Z" fill="#F7DEA5"/>
<path id="Vector_13" d="M36.3703 28.6092C36.3703 27.5563 36.3703 26.5936 36.3703 25.5708C36.8742 25.8566 37.1261 26.2778 37.2002 26.8042C37.304 27.5413 37.052 28.1279 36.3703 28.6092Z" fill="#F7DEA5"/>
<path id="Vector_14" d="M51.1466 20.1709C51.1466 20.1258 51.117 20.0656 51.1318 20.0355C51.1762 19.9904 51.2059 20.0355 51.2355 20.0807C51.2059 20.1107 51.1762 20.1408 51.1466 20.1709Z" fill="#FDFDFD"/>
<path id="Vector_15" d="M46.1075 5.43008C44.4772 5.43008 42.847 5.41504 41.2167 5.43008C40.861 5.43008 40.7572 5.33983 40.7572 4.96379C40.7572 3.595 40.7424 3.595 42.1207 3.595C45.0849 3.595 48.0342 3.595 50.9984 3.57996C51.3689 3.57996 51.4727 3.67021 51.4727 4.06129C51.4578 5.41504 51.4727 5.41504 50.1388 5.41504C48.8049 5.43008 47.4562 5.43008 46.1075 5.43008Z" fill="#030303"/>
<path id="Vector_16" d="M44.3735 9.04006C43.3212 9.04006 42.2541 9.02502 41.2018 9.04006C40.8758 9.04006 40.772 8.96485 40.772 8.6189C40.7572 7.20498 40.7424 7.20498 42.1504 7.20498C43.9289 7.20498 45.6925 7.22002 47.471 7.18994C47.8119 7.18994 47.9305 7.26515 47.9305 7.62615C47.9305 9.02502 47.9453 9.02502 46.5818 9.02502C45.8407 9.04006 45.0997 9.04006 44.3735 9.04006Z" fill="#030303"/>
<path id="Vector_17" d="M49.6793 8.04726C49.6793 7.21997 49.6793 7.21997 50.4797 7.21997C51.4578 7.21997 51.4578 7.21997 51.4578 8.19768C51.4578 9.04001 51.4578 9.04001 50.5982 9.04001C49.6793 9.04001 49.6793 9.04001 49.6793 8.04726Z" fill="#030303"/>
</g>
</g>
<defs>
<clipPath id="clip0_139_122146">
<rect width="55" height="56" fill="white"/>
</clipPath>
</defs>
</svg>
