<svg width="51" height="56" viewBox="0 0 51 56" fill="none" xmlns="http://www.w3.org/2000/svg">
<g id="Frame" clip-path="url(#clip0_139_122165)">
<g id="Group">
<path id="Vector" d="M31.1447 43.7417C29.329 44.2121 27.4987 44.4619 25.6245 44.4766C23.677 44.4913 21.7295 44.2415 19.8407 43.7564C19.6942 43.6976 19.5332 43.6388 19.3867 43.5948C15.5943 42.5071 12.3437 40.5375 9.57623 37.7155C8.82946 36.9512 8.19983 36.084 7.4677 35.305C6.64772 33.9822 5.79845 32.6593 5.18347 31.2189C4.15849 28.8231 3.5435 26.3391 3.36779 23.7375C3.03101 18.7696 4.21706 14.1837 6.94057 10.0535C10.4841 4.68871 15.4625 1.45512 21.8028 0.308661C22.4617 0.191076 23.1206 0.205774 23.7649 0C24.9216 0 26.093 0 27.2498 0C28.0258 0.235171 28.8458 0.220472 29.6365 0.39685C38.8906 2.52808 44.8062 8.20158 47.0465 17.4614C48.5401 23.664 47.2515 29.4845 43.7227 34.8052C43.6348 34.9375 43.5469 35.0845 43.4591 35.2168C43.3566 35.3197 43.2541 35.4226 43.1662 35.5402C40.5599 39.0089 37.236 41.5076 33.18 43.0509C32.5211 43.3008 31.8329 43.5066 31.1447 43.7417ZM41.5263 22.2824C41.4677 13.2136 34.3954 6.4231 26.1077 6.14383C16.5607 5.80577 9.41516 13.3606 9.40052 22.1207C9.37124 31.263 16.5022 38.3328 25.4195 38.3622C34.3954 38.3769 41.4091 31.2483 41.5263 22.2824Z" fill="#F9B50B"/>
<path id="Vector_2" d="M31.1447 43.7418C31.8329 43.5066 32.5211 43.3008 33.1947 43.0363C37.236 41.493 40.5745 38.9943 43.1809 35.5255C43.2687 35.4079 43.3712 35.305 43.4737 35.2021C45.9337 39.4646 48.3936 43.7418 50.8536 48.0042C50.9268 48.1218 51.0732 48.2541 51 48.3864C50.9122 48.5481 50.7072 48.4599 50.5607 48.4452C47.9544 48.3129 45.348 48.1806 42.7416 48.0189C42.3902 48.0042 42.1998 48.0777 42.0388 48.4158C40.882 50.7381 39.696 53.0604 38.5246 55.368C38.4367 55.5444 38.3488 55.7208 38.2024 55.9706C35.801 51.8699 33.4729 47.8132 31.1447 43.7418Z" fill="#00AA54"/>
<path id="Vector_3" d="M7.46771 35.3049C8.19984 36.0839 8.82947 36.9511 9.57624 37.7154C12.3437 40.5375 15.5943 42.507 19.3867 43.5947C19.5478 43.6388 19.6942 43.7123 19.8407 43.7564C17.5125 47.8131 15.199 51.8551 12.8708 55.9265C12.6512 55.7795 12.6072 55.5737 12.534 55.412C11.3626 53.1044 10.1912 50.8115 9.03446 48.5039C8.85875 48.1511 8.6684 48.0188 8.25841 48.0482C5.66668 48.2099 3.07495 48.3422 0.483215 48.4745C0.33679 48.4892 0.117152 48.5774 0.0292964 48.4157C-0.0585589 48.254 0.117152 48.1217 0.190364 47.9894C2.62103 43.7564 5.03705 39.5233 7.46771 35.3049Z" fill="#00AA54"/>
<path id="Vector_4" d="M41.5263 22.2824C41.4091 31.2483 34.41 38.3769 25.4341 38.3622C16.5022 38.3328 9.37124 31.263 9.40053 22.1208C9.42981 13.3607 16.5607 5.8058 26.1077 6.14386C34.3807 6.42313 41.4531 13.2137 41.5263 22.2824ZM18.1861 32.0567C18.1861 32.8651 18.8157 33.2326 19.4892 32.8945C21.2464 31.9832 23.0035 31.0719 24.7313 30.1313C25.2584 29.852 25.683 29.852 26.2102 30.1313C27.8941 31.0572 29.6072 31.9391 31.3058 32.8357C31.6572 33.0268 32.0086 33.1444 32.3747 32.8798C32.7261 32.6299 32.7847 32.2772 32.7115 31.8656C32.3747 29.9108 32.0526 27.9559 31.7011 26.0158C31.6133 25.516 31.7451 25.1486 32.1111 24.7958C33.5314 23.4142 34.9371 22.0179 36.3428 20.6216C36.621 20.357 36.8114 20.063 36.665 19.6515C36.5185 19.2546 36.2257 19.1076 35.845 19.0488C33.8975 18.7696 31.9354 18.4609 29.988 18.1964C29.4462 18.1229 29.1387 17.8877 28.9044 17.4174C28.0698 15.6977 27.2205 13.9927 26.3859 12.273C26.1955 11.8761 26.0198 11.4793 25.4634 11.4793C24.9216 11.4793 24.7313 11.8614 24.5263 12.2583C23.6917 13.9927 22.8277 15.7271 21.9931 17.4614C21.7881 17.8877 21.4953 18.1376 20.9974 18.1964C19.0793 18.4609 17.1611 18.7696 15.2429 19.0341C14.789 19.0929 14.3936 19.1958 14.2179 19.6956C14.0715 20.1659 14.3644 20.4452 14.6572 20.7244C16.0336 22.0767 17.41 23.4142 18.7864 24.7664C19.0793 25.0604 19.3282 25.3691 19.2403 25.81C19.0793 26.7066 18.9182 27.6032 18.7718 28.4998C18.5814 29.705 18.3764 30.925 18.1861 32.0567Z" fill="#CF960A"/>
<path id="Vector_5" d="M18.1861 32.0567C18.3764 30.925 18.5814 29.705 18.7864 28.4851C18.9328 27.5885 19.0939 26.6919 19.255 25.7953C19.3282 25.3397 19.0939 25.031 18.801 24.7517C17.4246 23.3995 16.0482 22.062 14.6718 20.7097C14.379 20.4305 14.0861 20.1512 14.2326 19.6809C14.3936 19.1811 14.789 19.0782 15.2575 19.0195C17.1757 18.7549 19.0939 18.4462 21.0121 18.1817C21.4953 18.1082 21.7881 17.873 22.0078 17.4468C22.8424 15.7124 23.7063 13.978 24.5409 12.2436C24.7313 11.8321 24.9216 11.4646 25.478 11.4646C26.0198 11.4646 26.1955 11.8615 26.4005 12.2583C27.2352 13.978 28.0844 15.683 28.919 17.4027C29.1387 17.873 29.4608 18.1082 30.0026 18.1817C31.9647 18.4462 33.9122 18.7549 35.8596 19.0342C36.255 19.0929 36.5478 19.2399 36.6796 19.6368C36.826 20.0483 36.6357 20.3423 36.3575 20.6069C34.9518 22.0032 33.5461 23.3995 32.1258 24.7811C31.7597 25.1339 31.6279 25.4866 31.7158 26.0011C32.0672 27.9559 32.3747 29.9108 32.7261 31.851C32.7993 32.2625 32.7554 32.6153 32.3893 32.8651C32.0233 33.1297 31.6865 33.0121 31.3204 32.821C29.6219 31.9097 27.9087 31.0279 26.2248 30.1166C25.7123 29.8373 25.273 29.8373 24.7459 30.1166C23.0035 31.0572 21.261 31.9832 19.5039 32.8798C18.8303 33.2326 18.2007 32.8504 18.1861 32.0567Z" fill="#FEFEFD"/>
</g>
</g>
<defs>
<clipPath id="clip0_139_122165">
<rect width="51" height="56" fill="white"/>
</clipPath>
</defs>
</svg>
