<svg width="21" height="21" viewBox="0 0 21 21" fill="none" xmlns="http://www.w3.org/2000/svg">
<g id="vuesax/linear/trush-square" opacity="0.5">
<g id="vuesax/linear/trush-square_2">
<g id="trush-square">
<path id="Vector (Stroke)" fill-rule="evenodd" clip-rule="evenodd" d="M2.64154 2.64154C3.83539 1.4477 5.61353 1 7.875 1H13.125C15.3865 1 17.1646 1.4477 18.3585 2.64154C19.5523 3.83539 20 5.61353 20 7.875V13.125C20 15.3865 19.5523 17.1646 18.3585 18.3585C17.1646 19.5523 15.3865 20 13.125 20H7.875C5.61353 20 3.83539 19.5523 2.64154 18.3585C1.4477 17.1646 1 15.3865 1 13.125V7.875C1 5.61353 1.4477 3.83539 2.64154 2.64154ZM3.7022 3.7022C2.9273 4.47711 2.5 5.76147 2.5 7.875V13.125C2.5 15.2385 2.9273 16.5229 3.7022 17.2978C4.47711 18.0727 5.76147 18.5 7.875 18.5H13.125C15.2385 18.5 16.5229 18.0727 17.2978 17.2978C18.0727 16.5229 18.5 15.2385 18.5 13.125V7.875C18.5 5.76147 18.0727 4.47711 17.2978 3.7022C16.5229 2.9273 15.2385 2.5 13.125 2.5H7.875C5.76147 2.5 4.47711 2.9273 3.7022 3.7022Z" fill="#292D32"/>
<g id="Group">
<path id="Vector (Stroke)_2" fill-rule="evenodd" clip-rule="evenodd" d="M6.43615 7.05864C7.58765 6.94264 8.74983 6.88 9.9137 6.88C11.8549 6.88 13.8051 6.9775 15.7378 7.17254C16.1499 7.21413 16.4502 7.58194 16.4087 7.99406C16.3671 8.40618 15.9993 8.70655 15.5871 8.66496C13.7048 8.475 11.805 8.38 9.9137 8.38C8.80305 8.38 7.6907 8.43981 6.58515 8.55122L6.58238 8.5515L6.58238 8.55149L5.40988 8.66525C4.9976 8.70525 4.63096 8.40345 4.59096 7.99118C4.55096 7.5789 4.85275 7.21226 5.26503 7.17226L6.43615 7.05864Z" fill="#292D32"/>
<path id="Vector (Stroke)_3" fill-rule="evenodd" clip-rule="evenodd" d="M9.41448 6.42401C9.3966 6.48433 9.38264 6.56247 9.35914 6.70817L9.23646 7.46176C9.16991 7.87059 8.78453 8.14806 8.3757 8.08151C7.96687 8.01495 7.6894 7.62958 7.75595 7.22074L7.87828 6.46932C7.87825 6.46949 7.8783 6.46916 7.87828 6.46932C7.8805 6.45552 7.8829 6.44012 7.88536 6.42422C7.92116 6.1937 7.98951 5.75358 8.28813 5.41354C8.65046 5.00096 9.18178 4.885 9.74745 4.885H11.2525C11.827 4.885 12.3558 5.0095 12.7149 5.42367C13.0083 5.7621 13.0778 6.19632 13.1136 6.42006C13.1162 6.43634 13.1187 6.45151 13.121 6.46545L13.1212 6.46686L13.2437 7.21062C13.311 7.61933 13.0343 8.00522 12.6256 8.07253C12.2169 8.13985 11.831 7.8631 11.7637 7.45439L11.6414 6.71205C11.6414 6.71182 11.6414 6.71227 11.6414 6.71205C11.6177 6.57012 11.6039 6.49324 11.5858 6.4328C11.5843 6.42774 11.5829 6.42323 11.5816 6.41921C11.5379 6.40527 11.4408 6.385 11.2525 6.385H9.74745C9.56074 6.385 9.46225 6.404 9.41644 6.41755C9.4158 6.41959 9.41515 6.42174 9.41448 6.42401ZM11.6117 6.43209C11.6115 6.43226 11.6088 6.431 11.6043 6.42781C11.6097 6.43032 11.612 6.43192 11.6117 6.43209Z" fill="#292D32"/>
<path id="Vector (Stroke)_4" fill-rule="evenodd" clip-rule="evenodd" d="M6.51377 7.24034C6.92711 7.21341 7.28401 7.52666 7.31094 7.94L7.68704 13.7129C7.68707 13.7132 7.68709 13.7136 7.68712 13.7139C7.70313 13.9495 7.71562 14.1113 7.74278 14.2468C7.76844 14.3748 7.79783 14.425 7.81358 14.4455C7.81365 14.4456 7.81374 14.4457 7.81386 14.4459C7.82167 14.4564 7.93925 14.615 8.65378 14.615H12.3375C13.0521 14.615 13.1696 14.4564 13.1774 14.4459C13.1776 14.4457 13.1777 14.4456 13.1777 14.4455C13.1935 14.425 13.2229 14.3748 13.2485 14.2468C13.2757 14.1113 13.2882 13.9495 13.3042 13.7139C13.3042 13.7136 13.3042 13.7132 13.3043 13.7129L13.6804 7.93999C13.7073 7.52666 14.0642 7.21341 14.4775 7.24034C14.8909 7.26727 15.2041 7.62418 15.1772 8.03752L14.8009 13.8125L14.8008 13.8146L14.7997 13.8305C14.7854 14.042 14.768 14.2987 14.7193 14.5415C14.6678 14.7982 14.5725 15.092 14.3673 15.3592C13.9302 15.9284 13.2135 16.115 12.3375 16.115H8.65378C7.77776 16.115 7.06115 15.9284 6.62397 15.3592C6.41878 15.092 6.32348 14.7982 6.27203 14.5415C6.22335 14.2987 6.20593 14.042 6.19158 13.8305L6.1905 13.8146L6.19036 13.8125L5.81411 8.03751C5.78718 7.62418 6.10043 7.26727 6.51377 7.24034Z" fill="#292D32"/>
</g>
</g>
</g>
</g>
</svg>
