<svg width="19" height="17" viewBox="0 0 19 17" fill="none" xmlns="http://www.w3.org/2000/svg">
<g id="Frame" clip-path="url(#clip0_150_22351)">
<g id="Group">
<path id="Vector" d="M18.2671 6.62684C18.2724 6.80384 18.1653 6.96002 18.0152 7.10058C16.7881 8.26149 15.5664 9.43281 14.3286 10.5833C14.1303 10.7707 14.0821 10.9321 14.1303 11.1872C14.4358 12.8374 14.7198 14.4929 15.0091 16.1432C15.0574 16.4139 14.9877 16.6377 14.7573 16.7991C14.5269 16.9605 14.2857 16.9501 14.0392 16.8251C12.4639 16.0182 10.8885 15.2165 9.31844 14.4096C9.18448 14.3419 9.08267 14.3419 8.94871 14.4096C7.38404 15.2165 5.81401 16.013 4.24398 16.8147C3.78315 17.049 3.30089 16.8304 3.24731 16.3566C3.23659 16.2577 3.25266 16.1484 3.2741 16.0495C3.56881 14.3628 3.86353 12.6813 4.16896 10.9946C4.1904 10.8644 4.15824 10.7915 4.06715 10.7082C2.79184 9.50569 1.52188 8.30313 0.257286 7.09537C0.144758 6.98605 0.048306 6.83508 0.0161552 6.68411C-0.0588632 6.33531 0.166192 6.03858 0.535926 5.97611C1.24324 5.86679 1.95056 5.76787 2.65788 5.66896C3.73493 5.51799 4.81733 5.36182 5.89439 5.21605C6.03906 5.19523 6.10872 5.13276 6.16767 5.00782C6.94464 3.46688 7.73234 1.93115 8.50931 0.390208C8.64863 0.119502 8.85225 -0.0158502 9.15769 -0.00543846C9.44169 0.00497329 9.62387 0.145532 9.74712 0.390208C10.5134 1.90512 11.2904 3.42003 12.0513 4.93493C12.1477 5.12235 12.2602 5.19523 12.4639 5.22646C14.1625 5.45552 15.8558 5.7002 17.549 5.93446C18.0259 6.00734 18.2671 6.22599 18.2671 6.62684Z" fill="#ECAB0C"/>
</g>
</g>
<defs>
<clipPath id="clip0_150_22351">
<rect width="18.267" height="16.9139" fill="white"/>
</clipPath>
</defs>
</svg>
