<svg width="22" height="23" viewBox="0 0 22 23" fill="none" xmlns="http://www.w3.org/2000/svg">
<path fill-rule="evenodd" clip-rule="evenodd" d="M14.78 2.3877C13.9837 2.3877 13.2201 2.704 12.6571 3.26703L3.46709 12.457C2.52878 13.3953 2.00165 14.668 2.00165 15.9949C2.00165 17.3219 2.52878 18.5945 3.46709 19.5328C4.4054 20.4711 5.67802 20.9983 7.00498 20.9983C8.33195 20.9983 9.60457 20.4711 10.5429 19.5328L19.7329 10.3428C20.1234 9.95229 20.7566 9.95229 21.1471 10.3428C21.5376 10.7333 21.5376 11.3665 21.1471 11.757L11.9571 20.947C10.6437 22.2604 8.86239 22.9983 7.00498 22.9983C5.14758 22.9983 3.36626 22.2604 2.05288 20.947C0.739497 19.6336 0.00164795 17.8523 0.00164795 15.9949C0.00164795 14.1375 0.739497 12.3562 2.05288 11.0428L11.2429 1.85281C12.181 0.914714 13.4533 0.387695 14.78 0.387695C16.1067 0.387695 17.379 0.914714 18.3171 1.85281C19.2552 2.79091 19.7822 4.06325 19.7822 5.38992C19.7822 6.71659 19.2552 7.98893 18.3171 8.92703L9.11709 18.117C8.55427 18.6798 7.79093 18.996 6.99498 18.996C6.19904 18.996 5.43569 18.6798 4.87288 18.117C4.31006 17.5542 3.99387 16.7909 3.99387 15.9949C3.99387 15.199 4.31006 14.4356 4.87288 13.8728L13.3633 5.3924C13.754 5.0021 14.3872 5.00248 14.7775 5.39323C15.1678 5.78398 15.1674 6.41715 14.7767 6.80744L6.28709 15.287C6.09961 15.4747 5.99387 15.7296 5.99387 15.9949C5.99387 16.2604 6.09935 16.5151 6.28709 16.7028C6.47484 16.8906 6.72947 16.996 6.99498 16.996C7.2605 16.996 7.51513 16.8906 7.70288 16.7028L16.9029 7.51281C17.4657 6.94982 17.7822 6.18598 17.7822 5.38992C17.7822 4.59368 17.4659 3.83005 16.9029 3.26703C16.3399 2.704 15.5762 2.3877 14.78 2.3877Z" fill="#00AA54"/>
</svg>
