<svg width="38" height="38" viewBox="0 0 38 38" fill="none" xmlns="http://www.w3.org/2000/svg">
<g id="Frame">
<g id="Group">
<path id="Vector" fill-rule="evenodd" clip-rule="evenodd" d="M29.3909 12.8333H12.5868L15.0534 21.9292L28.1576 19.6167C28.9285 19.4625 29.3909 18.8458 29.3909 18.075V12.8333ZM6.57428 3.58334C8.73262 3.58334 10.4285 4.97084 11.0451 6.97501L11.816 9.75001H30.9326C31.8576 9.75001 32.4743 10.3667 32.4743 11.2917V17.9208C32.4743 20.0792 30.9326 22.0833 28.6201 22.5458L14.2826 25.1667C13.5118 25.3208 12.741 24.8583 12.5868 24.0875L8.11595 7.74584C7.96178 7.12918 7.34512 6.66668 6.57428 6.66668H4.72428C3.79928 6.66668 3.18262 6.05001 3.18262 5.12501C3.18262 4.20001 3.79928 3.58334 4.72428 3.58334H6.57428ZM29.3909 26.7083C31.0868 26.7083 32.4743 28.0958 32.4743 29.7917C32.4743 31.4875 31.0868 32.875 29.3909 32.875C27.6951 32.875 26.3076 31.4875 26.3076 29.7917C26.3076 28.0958 27.6951 26.7083 29.3909 26.7083ZM12.4326 26.7083C14.1285 26.7083 15.516 28.0958 15.516 29.7917C15.516 31.4875 14.1285 32.875 12.4326 32.875C10.7368 32.875 9.34928 31.4875 9.34928 29.7917C9.34928 28.0958 10.7368 26.7083 12.4326 26.7083Z" fill="black"/>
</g>
</g>
</svg>
