<svg width="15" height="14" viewBox="0 0 15 14" fill="none" xmlns="http://www.w3.org/2000/svg">
<path fill-rule="evenodd" clip-rule="evenodd" d="M0.79983 0.782415C0.883298 0.609723 1.0582 0.5 1.25 0.5H13.75C13.9418 0.5 14.1167 0.609723 14.2002 0.782415C14.2836 0.955107 14.261 1.16033 14.1418 1.31063L9.25001 7.48082V13C9.25001 13.1756 9.15786 13.3384 9.00725 13.4287C8.85665 13.5191 8.66968 13.5238 8.51471 13.4412L6.01471 12.1078C5.85178 12.0209 5.75 11.8513 5.75 11.6667V7.48082L0.8582 1.31063C0.73904 1.16033 0.716362 0.955107 0.79983 0.782415ZM2.28448 1.5L6.64181 6.99604C6.71188 7.08442 6.75 7.19389 6.75 7.30667V11.3667L8.25001 12.1667V7.30667C8.25001 7.19389 8.28813 7.08442 8.3582 6.99604L12.7155 1.5H2.28448Z" fill="black"/>
</svg>
