<svg width="17" height="18" viewBox="0 0 17 18" fill="none" xmlns="http://www.w3.org/2000/svg">
<path d="M14.5808 0.335449H2.41923C1.04615 0.335449 0 1.3816 0 2.75468V14.9162C0 16.2893 1.04615 17.3354 2.41923 17.3354H14.5808C15.9538 17.3354 17 16.2893 17 14.9162V2.75468C17 1.3816 15.9538 0.335449 14.5808 0.335449ZM8.5 13.9354C11.3115 13.9354 13.6 11.7124 13.6 9.0316C13.6 8.57391 13.5346 8.05083 13.4038 7.65853H14.8423V14.5893C14.8423 14.9162 14.5808 15.2431 14.1885 15.2431H2.81154C2.48462 15.2431 2.15769 14.9816 2.15769 14.5893V7.59314H3.66154C3.53077 8.05083 3.46539 8.50853 3.46539 8.96622C3.4 11.7124 5.68846 13.9354 8.5 13.9354ZM8.5 11.9739C6.66923 11.9739 5.23077 10.5354 5.23077 8.77007C5.23077 7.00468 6.66923 5.56622 8.5 5.56622C10.3308 5.56622 11.7692 7.00468 11.7692 8.77007C11.7692 10.6008 10.3308 11.9739 8.5 11.9739ZM14.7769 4.97776C14.7769 5.37006 14.45 5.69699 14.0577 5.69699H12.2269C11.8346 5.69699 11.5077 5.37006 11.5077 4.97776V3.21237C11.5077 2.82006 11.8346 2.49314 12.2269 2.49314H14.0577C14.45 2.49314 14.7769 2.82006 14.7769 3.21237V4.97776Z" fill="#004527"/>
</svg>
