<svg width="21" height="13" viewBox="0 0 21 13" fill="none" xmlns="http://www.w3.org/2000/svg">
<path d="M20.8055 11.4507C20.8055 11.3677 20.7225 11.3677 20.7225 11.2847C20.3904 10.6205 19.6432 9.79025 18.6469 8.877C18.1488 8.46189 17.8997 8.12979 17.7337 7.96374C17.4846 7.63165 17.4846 7.38259 17.5676 7.0505C17.6507 6.80143 17.9827 6.3863 18.5639 5.6391C18.896 5.22398 19.062 4.97492 19.3111 4.72585C20.5564 3.06539 21.1376 1.98609 20.9716 1.48795L20.8886 1.40494C20.8055 1.32191 20.7225 1.23889 20.5564 1.23889C20.3904 1.15587 20.1413 1.15587 19.8923 1.23889H16.7374C16.6544 1.23889 16.6544 1.23889 16.4883 1.23889C16.4053 1.23889 16.3223 1.23889 16.3223 1.23889H16.2393H16.1562L16.0732 1.32191C15.9902 1.40493 15.9902 1.40493 15.9902 1.48795C15.6581 2.4012 15.243 3.14841 14.8279 3.97864C14.5788 4.39375 14.3297 4.80888 14.0807 5.14097C13.8316 5.47306 13.6655 5.72212 13.4995 5.88817C13.3335 6.05422 13.1674 6.13724 13.0844 6.30328C13.0014 6.38631 12.8353 6.46934 12.8353 6.38631C12.7523 6.38631 12.6693 6.38631 12.6693 6.30328C12.5862 6.22026 12.5032 6.13724 12.4202 6.05421C12.3372 5.97119 12.3372 5.80514 12.2542 5.6391C12.2542 5.47305 12.2542 5.30701 12.2542 5.22398C12.2542 5.14096 12.2542 4.8919 12.2542 4.72585C12.2542 4.47678 12.2542 4.31073 12.2542 4.22771C12.2542 3.97864 12.2542 3.64656 12.2542 3.31447C12.2542 2.98237 12.2542 2.7333 12.2542 2.56725C12.2542 2.40121 12.2542 2.15214 12.2542 1.98609C12.2542 1.73703 12.2542 1.57097 12.2542 1.48795C12.2542 1.40493 12.1712 1.23889 12.1712 1.15587C12.0881 1.07284 12.0051 0.989817 11.9221 0.906794C11.839 0.823771 11.673 0.823773 11.59 0.74075C11.1749 0.657727 10.6767 0.574707 10.0956 0.574707C8.76721 0.574707 7.85395 0.657732 7.52186 0.823778C7.35581 0.906801 7.18977 0.989819 7.10675 1.15587C6.9407 1.32191 6.9407 1.40494 7.02372 1.40494C7.43883 1.48796 7.77093 1.654 7.93698 1.90307L8.02 2.06912C8.10303 2.15215 8.10301 2.31818 8.18603 2.56725C8.26906 2.81632 8.26906 3.06539 8.26906 3.39748C8.26906 3.89562 8.26906 4.39376 8.26906 4.72585C8.26906 5.14097 8.18603 5.39003 8.18603 5.6391C8.18603 5.88817 8.10303 6.05422 8.02 6.13724C7.93698 6.30329 7.93697 6.38631 7.85395 6.38631C7.85395 6.38631 7.85394 6.46933 7.77092 6.46933C7.6879 6.46933 7.60488 6.55236 7.43883 6.55236C7.35581 6.55236 7.18977 6.46934 7.10675 6.38631C6.9407 6.30329 6.77465 6.13724 6.69163 5.9712C6.52559 5.80515 6.35953 5.55608 6.19349 5.22398C6.02744 4.89189 5.77836 4.55981 5.61232 4.06167L5.44629 3.72958C5.36326 3.56353 5.19722 3.23144 5.03117 2.81632C4.86513 2.40121 4.69908 2.06912 4.53303 1.65401C4.45001 1.48796 4.36699 1.40493 4.28397 1.32191H4.20094C4.20094 1.32191 4.11791 1.23889 4.03489 1.23889C3.95186 1.23889 3.86885 1.15587 3.78583 1.15587H0.796998C0.464907 1.15587 0.298863 1.23889 0.21584 1.32191L0.132812 1.40494C0.132812 1.40494 0.132812 1.48796 0.132812 1.57098C0.132812 1.654 0.132818 1.73702 0.21584 1.90307C0.630955 2.89934 1.12909 3.89562 1.62723 4.8919C2.12537 5.80515 2.62351 6.63538 2.9556 7.21654C3.37071 7.7977 3.7028 8.37886 4.11792 8.877C4.53303 9.37514 4.78209 9.70723 4.86512 9.87327C5.03116 10.0393 5.11418 10.1223 5.1972 10.2054L5.44629 10.4544C5.61233 10.6205 5.8614 10.8695 6.19349 11.1186C6.52558 11.3677 6.94069 11.6167 7.3558 11.8658C7.77092 12.1149 8.26907 12.2809 8.7672 12.447C9.34836 12.613 9.8465 12.6961 10.3446 12.613H11.59C11.839 12.613 12.0051 12.53 12.1712 12.364L12.2542 12.2809C12.2542 12.1979 12.3372 12.1979 12.3372 12.1149C12.3372 12.0319 12.3372 11.9488 12.3372 11.7828C12.3372 11.4507 12.3372 11.2016 12.4202 10.9526C12.5032 10.7035 12.5032 10.5375 12.5863 10.3714C12.6693 10.2054 12.7523 10.1223 12.8353 10.0393C12.9183 9.95629 13.0014 9.87327 13.0014 9.87327H13.0844C13.2504 9.79025 13.4995 9.87327 13.6656 10.0393C13.9146 10.2054 14.1637 10.4544 14.3297 10.7035C14.4958 10.9526 14.7449 11.2016 15.077 11.5337C15.409 11.8658 15.6581 12.1149 15.8242 12.1979L16.0732 12.364C16.2393 12.447 16.4053 12.53 16.6544 12.613C16.9035 12.6961 17.0695 12.696 17.2355 12.696L20.0583 12.613C20.3074 12.613 20.5565 12.53 20.7225 12.447C20.8885 12.364 20.9716 12.2809 20.9716 12.1149C20.9716 12.0319 20.9716 11.8658 20.9716 11.7828C20.8055 11.6168 20.8055 11.5337 20.8055 11.4507Z" fill="#004527"/>
</svg>
