<svg width="18" height="14" viewBox="0 0 18 14" fill="none" xmlns="http://www.w3.org/2000/svg">
<path d="M17.7131 5.24858C17.7131 4.8607 17.6485 4.40818 17.6485 3.89101C17.5839 3.37383 17.5192 2.85666 17.4545 2.40413C17.3253 1.88696 17.1313 1.49909 16.7434 1.17586C16.4202 0.852623 15.9677 0.658678 15.5152 0.594031C14.0283 0.400092 11.8303 0.335449 8.85657 0.335449C5.88284 0.335449 3.6202 0.400092 2.19798 0.594031C1.74545 0.658678 1.29293 0.852623 0.969697 1.17586C0.646465 1.49909 0.387875 1.88696 0.258582 2.40413C0.129289 2.85666 0.0646504 3.30919 0.0646504 3.89101C3.94474e-06 4.40818 0 4.8607 0 5.24858C0 5.63645 0 6.08898 0 6.73545C0 7.38191 0 7.89908 0 8.22232C0 8.6102 0.0646504 9.06273 0.0646504 9.5799C0.129297 10.0971 0.193935 10.6142 0.258582 11.0668C0.387875 11.5839 0.581818 11.9718 0.969697 12.295C1.29293 12.6183 1.74545 12.8122 2.19798 12.8769C3.68484 13.0708 5.88284 13.1355 8.85657 13.1355C11.8303 13.1355 14.0929 13.0708 15.5152 12.8769C15.9677 12.8122 16.4202 12.6183 16.7434 12.295C17.0667 11.9718 17.3253 11.5839 17.4545 11.0668C17.5838 10.6142 17.6485 10.1617 17.6485 9.5799C17.7131 9.06273 17.7131 8.6102 17.7131 8.22232C17.7131 7.83444 17.7131 7.38191 17.7131 6.73545C17.7131 6.08898 17.7131 5.57181 17.7131 5.24858ZM12.2828 7.25262L7.17576 10.4203C7.11112 10.4849 6.98182 10.5496 6.85253 10.5496C6.72324 10.5496 6.65859 10.5496 6.5293 10.4849C6.33536 10.3556 6.20607 10.1617 6.20607 9.90313V3.50312C6.20607 3.24454 6.33536 3.0506 6.5293 2.92131C6.72324 2.79202 6.98182 2.79202 7.17576 2.92131L12.2828 6.08898C12.4768 6.21827 12.6061 6.41222 12.6061 6.60615C12.6061 6.80009 12.4768 7.12333 12.2828 7.25262Z" fill="#004527"/>
</svg>
